<?xml version="1.0" standalone="no"?><!--
  - ShineAI - An IntelliJ IDEA plugin for AI services.
  - Copyright (C) 2025 Shine Zhong
  -
  - This program is free software; you can redistribute it and/or modify
  - it under the terms of the GNU General Public License as published by
  - the Free Software Foundation; either version 2 of the License, or
  - (at your option) any later version.
  -
  - This program is distributed in the hope that it will be useful,
  - but WITHOUT ANY WARRANTY; without even the implied warranty of
  - MERCHANTABILITY AND FITNESS FOR A PARTICULAR PURPOSE.  See the
  - GNU General Public License for more details (usually in the LICENSE file).
  -
  - You should have received a copy of the GNU General Public License along
  - with this program; if not, write to the Free Software Foundation, Inc.,
  - 51 Franklin Street, Fifth Floor, Boston, MA 02110-1301 USA.
  -->

<!DOCTYPE svg PUBLIC "-//W3C//DTD SVG 1.1//EN" "http://www.w3.org/Graphics/SVG/1.1/DTD/svg11.dtd"><svg t="1753242458962" class="icon" viewBox="0 0 1024 1024" version="1.1" xmlns="http://www.w3.org/2000/svg" p-id="1082" xmlns:xlink="http://www.w3.org/1999/xlink" width="16" height="16"><path d="M804.571429 73.142857a146.285714 146.285714 0 0 1 146.285714 146.285714v585.142858a146.285714 146.285714 0 0 1-146.285714 146.285714H219.428571a146.285714 146.285714 0 0 1-146.285714-146.285714V219.428571a146.285714 146.285714 0 0 1 146.285714-146.285714h585.142858z m0 73.142857H219.428571a73.142857 73.142857 0 0 0-73.142857 73.142857v585.142858a73.142857 73.142857 0 0 0 73.142857 73.142857h585.142858a73.142857 73.142857 0 0 0 73.142857-73.142857V219.428571a73.142857 73.142857 0 0 0-73.142857-73.142857z" fill="#86909C" p-id="1083"></path><path d="M388.242286 613.814857l-25.746286 67.291429a56.539429 56.539429 0 0 1-14.628571 22.528c-6.217143 5.632-15.36 8.484571-27.501715 8.484571a41.106286 41.106286 0 0 1-28.964571-9.947428c-7.168-6.582857-8.045714-17.92-2.633143-33.938286l120.539429-351.670857a33.718857 33.718857 0 0 1 12.580571-16.676572 42.130286 42.130286 0 0 1 26.038857-7.314285c10.971429 0 19.602286 2.413714 26.038857 7.314285a33.718857 33.718857 0 0 1 12.580572 16.676572l121.709714 352.841143c4.681143 14.848 3.437714 25.6-3.803429 32.475428a40.448 40.448 0 0 1-28.964571 10.24c-12.068571 0.365714-21.065143-2.194286-26.916571-7.899428a57.344 57.344 0 0 1-13.458286-20.187429l-28.086857-70.217143H388.242286z m104.740571-66.121143l-45.056-145.115428-45.056 145.115428H492.982857zM730.550857 674.669714c0 12.434286-2.998857 21.869714-9.069714 28.086857-5.997714 6.217143-15.872 9.362286-29.549714 9.362286-13.604571 0-23.259429-3.145143-28.964572-9.362286-5.632-6.217143-8.484571-15.36-8.484571-27.501714v-345.234286c0-24.941714 12.434286-37.449143 37.449143-37.449142 12.434286 0 22.089143 2.706286 28.672 8.192 6.582857 5.485714 9.947429 14.994286 9.947428 28.672v345.234285z" fill="#86909C" p-id="1084"></path></svg>