<?xml version="1.0" standalone="no"?><!DOCTYPE svg PUBLIC "-//W3C//DTD SVG 1.1//EN" "http://www.w3.org/Graphics/SVG/1.1/DTD/svg11.dtd"><svg t="1753242474785" class="icon" viewBox="0 0 1024 1024" version="1.1" xmlns="http://www.w3.org/2000/svg" p-id="1240" xmlns:xlink="http://www.w3.org/1999/xlink" width="16" height="16"><path d="M550.411878 0c131.57256 0.146192 153.135841 0.950246 213.439932 3.581697 60.815761 2.777643 93.855093 12.937968 115.930045 21.490185 29.092155 11.256764 49.924477 24.852595 71.780141 46.635163 21.855664 21.92876 35.305304 42.687986 46.708259 71.853238 8.552216 21.92876 18.712542 55.041188 21.417089 115.930045 2.704547 57.599543 3.435506 79.893783 3.654793 196.189307v111.982868c-0.219288 116.222428-0.950246 138.589764-3.581697 196.189307-2.777643 60.888857-12.937968 93.928189-21.490185 115.930045-11.329859 29.238347-24.852595 49.924477-46.635163 71.780141a193.704047 193.704047 0 0 1-71.853237 46.708259c-21.92876 8.552216-55.041188 18.712542-115.930045 21.417089-57.526447 2.704547-79.820687 3.435506-196.189307 3.654793H455.679635c-116.222428-0.219288-138.589764-0.950246-196.189307-3.581697-60.815761-2.777643-93.855093-12.864873-115.930045-21.490185a193.704047 193.704047 0 0 1-71.780142-46.635163 192.753801 192.753801 0 0 1-46.708259-71.780142c-8.552216-22.001856-18.639446-55.041188-21.417089-115.930045C0.730959 703.620815 0.146192 682.057534 0 550.484974V472.930259c0.146192-131.57256 0.950246-153.135841 3.581697-213.439931 2.777643-60.888857 12.937968-93.928189 21.490185-116.003141A195.165965 195.165965 0 0 1 71.63395 71.780141a192.973089 192.973089 0 0 1 71.853237-46.708259c21.92876-8.552216 55.041188-18.639446 115.930045-21.417089C319.794418 0.730959 341.357699 0.146192 472.930259 0z m-34.13577 146.26483A370.011278 370.011278 0 0 0 146.191734 516.276108v0.292384a369.865087 369.865087 0 0 0 370.084374 370.230566 370.376758 370.376758 0 1 0 0-740.461132z m70.902991 518.322792a523.220216 523.220216 0 0 1-57.818831 127.333l-12.937968 19.516597a522.78164 522.78164 0 0 1-70.683703-146.849597h141.513598z m-217.825683 0.073096c9.502463 36.986509 22.294239 72.876579 38.37533 106.866158l12.645585 25.144978a296.988507 296.988507 0 0 1-160.372332-132.011136h109.278321z m403.489185 0a298.084945 298.084945 0 0 1-160.299236 131.791848c22.221144-41.226069 39.033193-85.522164 51.094011-131.791848h109.278321z m-418.035263-222.211435a610.350489 610.350489 0 0 0-4.970519 74.119209c0 25.144978 2.046684 49.70519 5.189807 73.973017H229.886502a295.453494 295.453494 0 0 1-9.648655-73.973017c0-25.583553 3.508602-50.436148 9.648655-74.046114h124.993932z m248.233564 0c3.508602 24.267828 5.920765 48.974231 5.920765 74.119209s-2.339068 49.70519-5.847669 73.973017H429.803698a518.834464 518.834464 0 0 1-5.84767-73.973017c0-25.218074 2.339068-49.851381 5.84767-74.046114h173.237204z m199.771005 0c6.140053 23.756157 9.867942 48.608752 9.867942 74.119209 0 25.583553-3.508602 50.363052-9.867942 73.973017h-124.993933c2.996931-24.194732 5.262902-48.901135 5.262903-73.973017 0-25.218074-1.973588-49.851381-5.189807-74.046114h124.993932zM516.4223 221.699764a511.671069 511.671069 0 0 1 70.756799 146.849597H445.738597c15.56942-52.409737 39.471768-101.968734 70.683703-146.849597z m95.901777 14.984653A296.696124 296.696124 0 0 1 772.623314 368.403169H663.418088a585.424798 585.424798 0 0 0-38.37533-106.500678l-12.718681-25.29117zM420.301235 236.392034a592.515097 592.515097 0 0 0-51.167107 132.011135H260.075095a296.76922 296.76922 0 0 1 160.372332-132.011135z" fill="#828C9E" p-id="1241"></path></svg>